<svg xmlns="http://www.w3.org/2000/svg" viewBox="0 0 24 24">
  <path d="M5.25 3.5h13.5A2.25 2.25 0 0 1 21 5.75v9.5a2.25 2.25 0 0 1-2.25 2.25h-7.42l-4.14 3.06A.75.75 0 0 1 6 19.96V17.5h-.75A2.25 2.25 0 0 1 3 15.25v-9.5A2.25 2.25 0 0 1 5.25 3.5Zm0 1.5a.75.75 0 0 0-.75.75v9.5c0 .41.34.75.75.75h1.5a.75.75 0 0 1 .75.75v1.73l3.13-2.32a.75.75 0 0 1 .45-.16h7.67a.75.75 0 0 0 .75-.75v-9.5a.75.75 0 0 0-.75-.75H5.25Zm2.5 4.25h8.5a.75.75 0 0 1 0 1.5h-8.5a.75.75 0 0 1 0-1.5Zm0 3.5h5.5a.75.75 0 0 1 0 1.5h-5.5a.75.75 0 0 1 0-1.5Z"/>
</svg>
