<svg viewBox="0 0 24 24" xmlns="http://www.w3.org/2000/svg"><path fill="currentColor" d="M12 2.3c-3.1 0-5.6 2.8-5.6 6.3 0 .8.1 1.6.4 2.3-.7 1.1-1.2 2.4-1.2 3.5 0 .7.2 1.2.6 1.5.3.2.7.2 1.1 0 .3 2 2.3 3.5 4.7 3.5s4.4-1.5 4.7-3.5c.4.2.8.2 1.1 0 .4-.3.6-.8.6-1.5 0-1.1-.5-2.4-1.2-3.5.3-.7.4-1.5.4-2.3 0-3.5-2.5-6.3-5.6-6.3Zm-2.2 6c-.6 0-1-.5-1-1.2 0-.6.4-1.1 1-1.1s1 .5 1 1.1c0 .7-.4 1.2-1 1.2Zm4.4 0c-.6 0-1-.5-1-1.2 0-.6.4-1.1 1-1.1s1 .5 1 1.1c0 .7-.4 1.2-1 1.2Zm-5.5 4.4h6.6c-.4 1.7-1.6 2.7-3.3 2.7s-2.9-1-3.3-2.7Z"/></svg>
