<svg xmlns="http://www.w3.org/2000/svg" viewBox="0 0 24 24">
  <path d="M12 1.75a.875.875 0 0 1 .875.875V4a.875.875 0 1 1-1.75 0V2.625A.875.875 0 0 1 12 1.75Zm0 5a5.25 5.25 0 1 1 0 10.5 5.25 5.25 0 0 1 0-10.5Zm0 1.75a3.5 3.5 0 1 0 0 7 3.5 3.5 0 0 0 0-7Zm10.25 3.5a.875.875 0 0 1-.875.875H20a.875.875 0 1 1 0-1.75h1.375a.875.875 0 0 1 .875.875ZM4 11.125a.875.875 0 1 1 0 1.75H2.625a.875.875 0 1 1 0-1.75H4Zm15.25-6.38a.875.875 0 0 1 0 1.238l-.973.972a.875.875 0 0 1-1.237-1.237l.972-.973a.875.875 0 0 1 1.238 0Zm-12.29.973a.875.875 0 0 1-1.237 1.237l-.973-.972a.875.875 0 1 1 1.237-1.238l.973.973Zm11.317 11.327.973.972a.875.875 0 0 1-1.238 1.238l-.972-.973a.875.875 0 0 1 1.237-1.237Zm-11.317 0a.875.875 0 0 1 0 1.237l-.973.973a.875.875 0 0 1-1.237-1.238l.973-.972a.875.875 0 0 1 1.237 0ZM12 19.125a.875.875 0 0 1 .875.875v1.375a.875.875 0 1 1-1.75 0V20a.875.875 0 0 1 .875-.875Z"/>
</svg>
