<svg viewBox="0 0 24 24" xmlns="http://www.w3.org/2000/svg"><path fill="currentColor" d="M9.7 4C5.5 4 2 6.8 2 10.3c0 2 1.2 3.9 3.2 5l-.8 2.3 2.7-1.3c.8.2 1.7.4 2.6.4h.5c-.2-.6-.3-1.2-.3-1.8 0-3.4 3.2-6.1 7.2-6.1h.2C16.5 6 13.4 4 9.7 4Zm-2.5 4.8c-.6 0-1-.4-1-1s.4-1 1-1 1 .4 1 1-.4 1-1 1Zm5 0c-.6 0-1-.4-1-1s.4-1 1-1 1 .4 1 1-.4 1-1 1Zm9.8 6c0-2.8-2.9-5-6.4-5s-6.4 2.2-6.4 5 2.9 5 6.4 5c.8 0 1.5-.1 2.2-.3l2.2 1.1-.6-1.9c1.6-.9 2.6-2.3 2.6-3.9Zm-8.6-1.1c-.5 0-.9-.4-.9-.8 0-.5.4-.8.9-.8s.9.3.9.8c0 .4-.4.8-.9.8Zm4.3 0c-.5 0-.9-.4-.9-.8 0-.5.4-.8.9-.8s.9.3.9.8c0 .4-.4.8-.9.8Z"/></svg>
